<svg width="21" height="18" viewBox="0 0 21 18" fill="none" xmlns="http://www.w3.org/2000/svg">
<path opacity="0.2" d="M12.25 16.626L12.25 0.875977L20.125 8.75098L12.25 16.626Z" fill="white"/>
<path d="M12.8691 17.2448L20.7441 9.36975C20.8255 9.28849 20.89 9.19199 20.934 9.08576C20.9781 8.97954 21.0007 8.86568 21.0007 8.75069C21.0007 8.6357 20.9781 8.52184 20.934 8.41562C20.89 8.30939 20.8255 8.21289 20.7441 8.13163L12.8691 0.256627C12.7467 0.134117 12.5908 0.0506706 12.4209 0.0168515C12.2511 -0.0169676 12.0751 0.00036146 11.9151 0.0666449C11.7551 0.132928 11.6184 0.245186 11.5223 0.389205C11.4262 0.533225 11.3749 0.702531 11.375 0.87569L11.375 7.87569L0.875049 7.87569C0.642984 7.87569 0.420423 7.96788 0.25633 8.13197C0.0922352 8.29607 4.92187e-05 8.51863 4.92086e-05 8.75069C4.91984e-05 8.98275 0.0922352 9.20531 0.25633 9.36941C0.420423 9.5335 0.642984 9.62569 0.875049 9.62569L11.375 9.62569L11.375 16.6257C11.3749 16.7988 11.4262 16.9682 11.5223 17.1122C11.6184 17.2562 11.7551 17.3685 11.9151 17.4347C12.0751 17.501 12.2511 17.5183 12.4209 17.4845C12.5908 17.4507 12.7467 17.3673 12.8691 17.2448ZM13.125 2.98772L18.888 8.75069L13.125 14.5137L13.125 2.98772Z" fill="white"/>
</svg>
