<svg width="32" height="32" viewBox="0 0 32 32" fill="none" xmlns="http://www.w3.org/2000/svg">
<path d="M10.6667 10.6667V9.33333C10.6667 7.91885 11.2287 6.56229 12.2288 5.5621C13.229 4.5619 14.5856 4 16.0001 4C17.4146 4 18.7711 4.5619 19.7713 5.5621C20.7715 6.56229 21.3334 7.91885 21.3334 9.33333V10.6667M20.0001 18.6667V16M12.0001 18.6667V16" stroke="black" stroke-width="2" stroke-linecap="round"/>
<path d="M5.33337 15.9998C5.33337 13.4852 5.33337 12.2292 6.11471 11.4478C6.89604 10.6665 8.15204 10.6665 10.6667 10.6665H21.3334C23.848 10.6665 25.104 10.6665 25.8854 11.4478C26.6667 12.2292 26.6667 13.4852 26.6667 15.9998V17.3332C26.6667 22.3612 26.6667 24.8758 25.104 26.4372C23.5414 27.9985 21.028 27.9998 16 27.9998C10.972 27.9998 8.45737 27.9998 6.89604 26.4372C5.33471 24.8745 5.33337 22.3612 5.33337 17.3332V15.9998Z" stroke="black" stroke-width="2"/>
</svg>
