<svg width="32" height="32" viewBox="0 0 32 32" fill="none" xmlns="http://www.w3.org/2000/svg">
<path d="M16 12.8C18.72 12.8 20.896 10.64 20.896 8C20.896 5.36 18.72 3.2 16 3.2C13.28 3.2 11.104 5.36 11.104 8C11.104 10.64 13.28 12.8 16 12.8ZM16 16C11.52 16 7.90398 12.416 7.90398 8C7.90398 3.584 11.52 0 16 0C20.48 0 24.096 3.584 24.096 8C24.096 12.416 20.48 16 16 16ZM4.79998 28.8H27.2V26.672C27.2 23.872 23.504 20.976 16 20.976C8.49598 20.976 4.79998 23.872 4.79998 26.672V28.8ZM16 17.776C26.656 17.776 30.4 23.104 30.4 26.672V32H1.59998V26.672C1.59998 23.104 5.34398 17.776 16 17.776Z" fill="black"/>
</svg>
